<?xml version="1.0" encoding="UTF-8" standalone="no"?>
<!DOCTYPE svg PUBLIC "-//W3C//DTD SVG 1.1//EN"
 "http://www.w3.org/Graphics/SVG/1.1/DTD/svg11.dtd">
<!-- Generated by graphviz version 2.40.1 (20161225.0304)
 -->
<!-- Title: %3 Pages: 1 -->
<svg width="228pt" height="227pt"
 viewBox="0.00 0.00 227.74 226.95" xmlns="http://www.w3.org/2000/svg" xmlns:xlink="http://www.w3.org/1999/xlink">
<g id="graph0" class="graph" transform="scale(1 1) rotate(0) translate(4 222.9533)">
<title>%3</title>
<polygon fill="#ffffff" stroke="transparent" points="-4,4 -4,-222.9533 223.7411,-222.9533 223.7411,4 -4,4"/>
<!-- 84adb2ce8698166855ecd69b24b2716353f0ffa7 -->
<g id="node1" class="node">
<title>84adb2ce8698166855ecd69b24b2716353f0ffa7</title>
<ellipse fill="#b3cde3" stroke="#b3cde3" cx="109.0456" cy="-181.4767" rx="79.8063" ry="37.4533"/>
<text text-anchor="middle" x="109.0456" y="-192.7767" font-family="Times,serif" font-size="14.00" fill="#000000">master</text>
<text text-anchor="middle" x="109.0456" y="-177.7767" font-family="Times,serif" font-size="14.00" fill="#000000">origin/master</text>
<text text-anchor="middle" x="109.0456" y="-162.7767" font-family="Times,serif" font-size="14.00" fill="#000000">84adb2c</text>
</g>
<!-- ca2ea182084c582d4c870f31b4e894e894337dcb -->
<g id="node2" class="node">
<title>ca2ea182084c582d4c870f31b4e894e894337dcb</title>
<ellipse fill="none" stroke="#000000" cx="50.0456" cy="-90" rx="50.0912" ry="18"/>
<text text-anchor="middle" x="50.0456" y="-86.3" font-family="Times,serif" font-size="14.00" fill="#000000">ca2ea18</text>
</g>
<!-- 84adb2ce8698166855ecd69b24b2716353f0ffa7&#45;&gt;ca2ea182084c582d4c870f31b4e894e894337dcb -->
<g id="edge3" class="edge">
<title>84adb2ce8698166855ecd69b24b2716353f0ffa7&#45;&gt;ca2ea182084c582d4c870f31b4e894e894337dcb</title>
<path fill="none" stroke="#000000" d="M85.8965,-145.5852C79.6012,-135.8247 72.9009,-125.4361 67.0171,-116.3136"/>
<polygon fill="#000000" stroke="#000000" points="69.8123,-114.19 61.4508,-107.6834 63.9297,-117.9841 69.8123,-114.19"/>
</g>
<!-- 7ce8691d997b2bb0b0d2a96e9093f5d7a952a99b -->
<g id="node3" class="node">
<title>7ce8691d997b2bb0b0d2a96e9093f5d7a952a99b</title>
<ellipse fill="none" stroke="#000000" cx="169.0456" cy="-90" rx="50.8918" ry="18"/>
<text text-anchor="middle" x="169.0456" y="-86.3" font-family="Times,serif" font-size="14.00" fill="#000000">7ce8691</text>
</g>
<!-- 84adb2ce8698166855ecd69b24b2716353f0ffa7&#45;&gt;7ce8691d997b2bb0b0d2a96e9093f5d7a952a99b -->
<g id="edge4" class="edge">
<title>84adb2ce8698166855ecd69b24b2716353f0ffa7&#45;&gt;7ce8691d997b2bb0b0d2a96e9093f5d7a952a99b</title>
<path fill="none" stroke="#000000" d="M132.5869,-145.5852C138.9889,-135.8247 145.8029,-125.4361 151.7863,-116.3136"/>
<polygon fill="#000000" stroke="#000000" points="154.889,-117.9648 157.447,-107.6834 149.0357,-114.1256 154.889,-117.9648"/>
</g>
<!-- 14b2c5ec20dae1e22efbf48d9854f861211bf628 -->
<g id="node4" class="node">
<title>14b2c5ec20dae1e22efbf48d9854f861211bf628</title>
<ellipse fill="none" stroke="#000000" cx="109.0456" cy="-18" rx="50.8918" ry="18"/>
<text text-anchor="middle" x="109.0456" y="-14.3" font-family="Times,serif" font-size="14.00" fill="#000000">14b2c5e</text>
</g>
<!-- ca2ea182084c582d4c870f31b4e894e894337dcb&#45;&gt;14b2c5ec20dae1e22efbf48d9854f861211bf628 -->
<g id="edge1" class="edge">
<title>ca2ea182084c582d4c870f31b4e894e894337dcb&#45;&gt;14b2c5ec20dae1e22efbf48d9854f861211bf628</title>
<path fill="none" stroke="#000000" d="M64.3278,-72.5708C71.5216,-63.7919 80.378,-52.9841 88.306,-43.3093"/>
<polygon fill="#000000" stroke="#000000" points="91.0593,-45.4714 94.6903,-35.5182 85.6449,-41.0347 91.0593,-45.4714"/>
</g>
<!-- 7ce8691d997b2bb0b0d2a96e9093f5d7a952a99b&#45;&gt;14b2c5ec20dae1e22efbf48d9854f861211bf628 -->
<g id="edge2" class="edge">
<title>7ce8691d997b2bb0b0d2a96e9093f5d7a952a99b&#45;&gt;14b2c5ec20dae1e22efbf48d9854f861211bf628</title>
<path fill="none" stroke="#000000" d="M154.5212,-72.5708C147.1513,-63.7269 138.0655,-52.8239 129.9576,-43.0945"/>
<polygon fill="#000000" stroke="#000000" points="132.5268,-40.7103 123.4361,-35.2687 127.1492,-45.1916 132.5268,-40.7103"/>
</g>
</g>
</svg>
